<svg width="67" height="32" viewBox="0 0 67 32" fill="none" xmlns="http://www.w3.org/2000/svg">
<path fill-rule="evenodd" clip-rule="evenodd" d="M34.4784 12.1535C34.5084 8.13841 38.254 5.33337 43.579 5.33337C45.6549 5.33337 47.3225 5.7817 48.6197 6.24987L47.6728 10.6241C45.2605 9.52307 43.1325 9.60044 42.3618 9.70161C40.8044 9.90197 40.0937 10.6895 40.0757 11.4275C40.0548 12.4054 41.2727 13.0391 42.7361 13.8005C44.915 14.9341 47.6379 16.3508 47.6248 19.6085C47.6047 23.8994 43.9033 26.6667 38.246 26.6667C35.8357 26.6449 33.5115 26.145 32.2563 25.5717L33.2312 21.0507L33.3333 21.098C34.5682 21.6707 36.129 22.3946 38.7624 22.354C40.3139 22.3302 41.9715 21.7192 41.9875 20.3346C41.9955 19.43 41.2908 18.7813 39.1928 17.7696C37.1509 16.7836 34.4404 15.1252 34.4784 12.1535ZM57.7183 5.71029H62.3186L66.6667 26.3453H61.684L61.0314 23.2646H54.1229L52.9978 26.3453H47.3445L55.4261 7.22389C55.8145 6.3074 56.6853 5.71029 57.7183 5.71029ZM55.6723 19.0332L58.509 11.2846L60.1405 19.0332H55.6723ZM27.624 5.71029H33.009L28.5548 26.3453H23.1678L27.624 5.71029ZM25.3118 5.71029H19.6545L14.0472 19.7553L11.7791 7.81307C11.5128 6.47999 10.4618 5.71029 9.29474 5.71029H0.128121L0 6.30938C1.88177 6.71407 4.01978 7.36673 5.315 8.06501C6.10774 8.49152 6.33395 8.86446 6.5942 9.87816L10.8902 26.3453H16.5836L25.3118 5.71029Z" fill="#1359AF"/>
</svg>
