<svg width="72" height="32" viewBox="0 0 72 32" fill="none" xmlns="http://www.w3.org/2000/svg">
<path fill-rule="evenodd" clip-rule="evenodd" d="M19.429 5.33337V5.34269L19.429 5.34269C19.4088 5.34266 16.6112 5.33905 15.8641 8.13745C15.1778 10.7086 13.2438 17.8073 13.1904 18.003H12.6556C12.6556 18.003 10.6771 10.7459 9.98189 8.12813C9.23325 5.32406 6.41693 5.33337 6.41693 5.33337H0V26.6667H6.41693V13.9971H6.6843H6.95168L10.6949 26.6667H15.1511L18.8943 14.0064H19.429V26.6667H25.846V5.33337H19.429ZM42.4807 5.33337C42.4807 5.33337 40.6457 5.51038 39.7847 7.56918L35.3493 18.003H34.8275V5.33337H28.5659V26.6667H34.4797C34.4797 26.6667 36.4016 26.4804 37.2626 24.4309L41.611 13.9971H42.1328V26.6667H48.3945V5.33337H42.4807ZM51.8418 26.6667V14.9334H71.279C70.3484 17.7775 67.8438 19.8144 64.8869 19.8144H58.1034V26.6667H51.8418Z" fill="#4DB45E"/>
<path d="M65.2297 5.36536H51.333C52.0274 8.99054 54.8658 11.9007 58.5374 12.8485C59.3707 13.0647 60.2474 13.1811 61.1501 13.1811H71.8612C71.9567 12.7488 72.0001 12.3081 72.0001 11.8508C72.0001 8.26716 68.9707 5.36536 65.2297 5.36536Z" fill="url(#paint0_linear_160_15410)"/>
<defs>
<linearGradient id="paint0_linear_160_15410" x1="51.3347" y1="13.1808" x2="72.0001" y2="13.1808" gradientUnits="userSpaceOnUse">
<stop offset="0.3" stop-color="#00B4E6"/>
<stop offset="1" stop-color="#088CCB"/>
</linearGradient>
</defs>
</svg>
