<svg width="47" height="32" viewBox="0 0 47 32" fill="none" xmlns="http://www.w3.org/2000/svg">
<path d="M29.3333 16.1109C29.3333 24.2128 22.7681 30.7775 14.6667 30.7775C6.56524 30.7775 0 24.2114 0 16.1109C0 8.0104 6.56684 1.44421 14.6667 1.44421C22.7665 1.44421 29.3333 8.0104 29.3333 16.1109Z" fill="#E2574C"/>
<path d="M32.001 1.44421C28.7129 1.44421 25.6858 2.53983 23.2395 4.36881L23.2513 4.37026C23.7324 4.83515 24.2632 5.16234 24.6724 5.69752L21.6218 5.74594C21.1438 6.22852 20.7082 6.75356 20.2975 7.2992H25.6769C26.0862 7.79047 26.4645 8.21739 26.8077 8.75997H19.3223C19.048 9.23226 18.7944 9.71773 18.5729 10.2222H27.6599C27.8975 10.7252 28.1102 11.1052 28.2906 11.6376H18.0347C17.8719 12.1437 17.7326 12.6613 17.6269 13.1893H28.7203C28.8289 13.6968 28.9123 14.166 28.9696 14.6442H17.4068C17.3584 15.1268 17.3335 15.6166 17.3335 16.111H29.0531C29.0531 16.6302 29.0164 17.1112 28.9637 17.5777H17.4068C17.4567 18.0749 17.5301 18.5633 17.6269 19.0444H28.7026C28.5882 19.5196 28.4562 19.9977 28.2905 20.4934H18.0009C18.1563 20.995 18.3456 21.4819 18.5523 21.9571H27.6599C27.4077 22.491 27.1217 22.9178 26.8065 23.4179H19.2961C19.5924 23.9312 19.9194 24.421 20.2742 24.8904L25.6771 24.971C25.2166 25.5239 24.6256 25.8568 24.0872 26.3409C24.1165 26.3643 23.2263 26.338 21.4737 26.3101C24.14 29.0617 27.8666 30.7775 32.0009 30.7775C40.101 30.7775 46.6668 24.2112 46.6668 16.111C46.6668 8.01069 40.1024 1.44421 32.001 1.44421Z" fill="#F4B459"/>
</svg>
