<svg width="24" height="24" viewBox="0 0 24 24" fill="none" xmlns="http://www.w3.org/2000/svg">
<path fill-rule="evenodd" clip-rule="evenodd" d="M12 22C17.4706 22 22 17.4706 22 12C22 6.53922 17.4608 2 11.9902 2C6.52941 2 2 6.53922 2 12C2 17.4706 6.53922 22 12 22ZM12 20.3333C7.37255 20.3333 3.67647 16.6275 3.67647 12C3.67647 7.38235 7.36275 3.66667 11.9902 3.66667C16.6176 3.66667 20.3235 7.38235 20.3333 12C20.3431 16.6275 16.6275 20.3333 12 20.3333ZM11.9902 13.7745C12.4608 13.7745 12.7353 13.5098 12.7451 13L12.8824 7.82353C12.8922 7.32353 12.5 6.95098 11.9804 6.95098C11.451 6.95098 11.0784 7.31373 11.0882 7.81373L11.2157 13C11.2255 13.5 11.5 13.7745 11.9902 13.7745ZM11.9902 16.9608C12.5588 16.9608 13.049 16.5098 13.049 15.9412C13.049 15.3627 12.5686 14.9216 11.9902 14.9216C11.4118 14.9216 10.9314 15.3725 10.9314 15.9412C10.9314 16.5 11.4216 16.9608 11.9902 16.9608Z" fill="#1A1A1A"/>
</svg>
