<svg width="24" height="24" viewBox="0 0 24 24" fill="none" xmlns="http://www.w3.org/2000/svg">
<path fill-rule="evenodd" clip-rule="evenodd" d="M12 20C16.3765 20 20 16.3765 20 12C20 7.63137 16.3686 4 11.9922 4C7.62353 4 4 7.63137 4 12C4 16.3765 7.63137 20 12 20ZM11.9922 13.1765C11.5765 13.1765 11.349 12.9333 11.3333 12.5176L11.2235 8.64314C11.2078 8.21176 11.5373 7.90588 11.9843 7.90588C12.4235 7.90588 12.7686 8.21961 12.7529 8.65098L12.6353 12.5176C12.6196 12.9412 12.3922 13.1765 11.9922 13.1765ZM11.9922 16.0627C11.5373 16.0627 11.1137 15.702 11.1137 15.2157C11.1137 14.7294 11.5294 14.3686 11.9922 14.3686C12.4549 14.3686 12.8706 14.7216 12.8706 15.2157C12.8706 15.7098 12.4471 16.0627 11.9922 16.0627Z" fill="#1A1A1A"/>
</svg>
