<svg width="24" height="24" viewBox="0 0 24 24" fill="none" xmlns="http://www.w3.org/2000/svg">
<path fill-rule="evenodd" clip-rule="evenodd" d="M12.7858 21.7799L20.1825 17.6896C21.0483 17.2035 21.5 16.7266 21.5 15.4151V8.15155C21.5 7.19775 21.1424 6.6108 20.3519 6.16141L13.6892 2.47461C12.5505 1.8418 11.4495 1.8418 10.3108 2.47461L3.6575 6.16141C2.8576 6.6108 2.5 7.19775 2.5 8.15155V15.4151C2.5 16.7266 2.96112 17.2035 3.81748 17.6896L11.2236 21.7799C11.7506 22.0734 12.2494 22.0734 12.7858 21.7799ZM16.4277 8.80271L9.13447 4.78574L10.9413 3.78608C11.6659 3.38255 12.3341 3.37338 13.0681 3.78608L19.2697 7.23444L16.4277 8.80271ZM12.0047 11.2422L4.73972 7.23444L7.6476 5.61114L14.9126 9.63728L12.0047 11.2422ZM11.2613 20.1383L4.66444 16.479C4.11862 16.1763 3.93041 15.8737 3.93041 15.3693V8.44503L11.2613 12.5262V20.1383ZM12.7387 20.1383V12.5262L20.0696 8.44503V15.3693C20.0696 15.8737 19.8814 16.1763 19.345 16.479L12.7387 20.1383Z" fill="#1A1A1A"/>
</svg>
