<svg width="24" height="24" viewBox="0 0 24 24" fill="none" xmlns="http://www.w3.org/2000/svg">
<path fill-rule="evenodd" clip-rule="evenodd" d="M16.0267 2C16.4037 2 16.714 2.28586 16.7595 2.65445L16.7653 2.7482L16.765 8.95519L20.0534 8.95597C20.399 8.95597 20.6885 9.19617 20.7695 9.52011L20.7862 9.61042L20.792 9.70417L20.7919 16.8204L21.2615 16.821C21.607 16.821 21.8966 17.0612 21.9775 17.3852L21.9943 17.4755L22 17.5692V21.2518C22 21.6328 21.7187 21.9479 21.3542 21.9942L21.2615 22H18.8454C18.4685 22 18.1581 21.7141 18.1126 21.3455L18.1069 21.2518L18.1067 20.7721H13.9462L13.9466 21.2518C13.9466 21.601 13.7102 21.8949 13.39 21.9771L13.3008 21.9942L13.208 22H10.792C10.415 22 10.1047 21.7141 10.0592 21.3455L10.0534 21.2518L10.0529 20.7721H5.89238L5.89311 21.2518C5.89311 21.601 5.65672 21.8949 5.33658 21.9771L5.24731 21.9942L5.15457 22H2.73854C2.36157 22 2.05126 21.7141 2.00575 21.3455L2 21.2518V17.5692C2 17.1883 2.28132 16.8731 2.6458 16.8269L2.73854 16.821L3.20717 16.8204L3.20802 9.70417C3.20802 9.35495 3.4444 9.06102 3.76454 8.97885L3.85382 8.9618L3.94655 8.95597L7.23408 8.95519L7.23474 2.7482C7.23474 2.39898 7.47113 2.10506 7.79127 2.02288L7.88054 2.00584L7.97328 2H16.0267ZM20.5229 18.3172H3.47623V20.5032H4.41525L4.41603 20.0243C4.41603 19.6433 4.69735 19.3281 5.06183 19.2819L5.15457 19.2761H10.792C11.1689 19.2761 11.4793 19.5619 11.5248 19.9305L11.5305 20.0243L11.53 20.5032H12.4691L12.4695 20.0243C12.4695 19.6433 12.7508 19.3281 13.1153 19.2819L13.208 19.2761H18.8454C19.2224 19.2761 19.5327 19.5619 19.5782 19.9305L19.584 20.0243L19.5839 20.5032H20.5229V18.3172ZM19.3148 10.452H12.7381V16.8204H19.3148V10.452ZM11.261 10.452H4.6843V16.8204H11.261V10.452ZM15.2879 3.4959H8.71121V8.95519H15.2879V3.4959Z" fill="#1A1A1A"/>
</svg>
