<svg width="24" height="24" viewBox="0 0 24 24" fill="none" xmlns="http://www.w3.org/2000/svg">
<path fill-rule="evenodd" clip-rule="evenodd" d="M23.9069 10.3998L21.4284 6.06482C21.3438 5.91676 21.2122 5.80994 21.062 5.75428C21.0613 5.75404 21.0609 5.75371 21.0603 5.75352L12.3185 2.54303C12.1635 2.4861 11.9936 2.48568 11.8383 2.54167L2.9434 5.75216C2.94317 5.75226 2.94303 5.75244 2.94279 5.75254C2.7905 5.80769 2.65714 5.91526 2.57159 6.06477L0.093026 10.3998C-0.00878648 10.578 -0.0280521 10.7917 0.0402917 10.9852C0.108635 11.1787 0.257745 11.3327 0.448667 11.407L2.47854 12.1966V17.5849C2.47854 17.882 2.6645 18.1472 2.9434 18.2478L11.7706 21.4339C11.8607 21.4759 11.9607 21.5 12.0665 21.5C12.0681 21.5 12.0696 21.4998 12.0711 21.4998C12.073 21.4998 12.0747 21.5 12.0765 21.5C12.1572 21.5 12.2378 21.4861 12.3148 21.4583L21.2097 18.2478C21.4886 18.1472 21.6745 17.882 21.6745 17.5849V12.137L23.5513 11.407C23.7422 11.3327 23.8914 11.1787 23.9597 10.9852C24.0281 10.7917 24.0088 10.578 23.9069 10.3998ZM12.0745 3.95427L18.7784 6.41633L12.0647 8.89135L5.25101 6.41713L12.0745 3.95427ZM3.49789 7.27938L11.0359 10.0167L9.1453 13.2783L1.71954 10.3897L3.49789 7.27938ZM3.88479 12.7436L9.19681 14.81C9.28006 14.8424 9.36608 14.8579 9.45106 14.8579C9.69542 14.8579 9.93022 14.7297 10.0593 14.5071L11.3634 12.2573V19.7891L3.88479 17.0898V12.7436ZM20.2683 17.0898L12.7696 19.7963V12.3788L13.933 14.4934C14.103 14.8024 14.475 14.9377 14.8032 14.81L20.2683 12.6841V17.0898ZM14.8676 13.2733L13.0775 10.0196L20.5036 7.28192L22.2804 10.3897L14.8676 13.2733Z" fill="#1A1A1A"/>
</svg>
