<svg width="31" height="30" viewBox="0 0 31 30" fill="none" xmlns="http://www.w3.org/2000/svg">
<path fill-rule="evenodd" clip-rule="evenodd" d="M18.12 28C19.9352 28 21 26.9824 21 24.9667V14.8395C21 12.8239 19.9251 11.8063 17.8158 11.8063H16.1932C16.1425 9.75147 14.2868 8 11.9949 8C9.7031 8 7.84732 9.75147 7.79662 11.8063H6.18423C4.06479 11.8063 3 12.8141 3 14.8395V24.9667C3 26.9922 4.06479 28 6.18423 28H18.12ZM14.5606 11.8063H9.4293C9.48 10.5245 10.5651 9.48728 11.9949 9.48728C13.4248 9.48728 14.5099 10.5245 14.5606 11.8063ZM18.0896 26.4247H6.20451C5.19042 26.4247 4.63268 25.9061 4.63268 24.8885V14.9178C4.63268 13.9002 5.19042 13.3816 6.20451 13.3816H17.7854C18.7893 13.3816 19.3673 13.9002 19.3673 14.9178V24.8885C19.3673 25.9061 18.7893 26.4247 18.0896 26.4247Z" fill="#1A1A1A"/>
<rect x="14" y="1" width="16" height="16" rx="8" fill="#01A54E"/>
<rect x="14" y="1" width="16" height="16" rx="8" stroke="#FFE44D" stroke-width="2"/>
<path d="M22.0018 12.081C21.2518 12.081 20.6788 11.805 20.2828 11.253C19.8868 10.695 19.6888 9.885 19.6888 8.823C19.6888 7.767 19.8868 6.963 20.2828 6.411C20.6788 5.853 21.2518 5.574 22.0018 5.574C22.7518 5.574 23.3248 5.853 23.7208 6.411C24.1168 6.963 24.3148 7.767 24.3148 8.823C24.3148 9.879 24.1168 10.686 23.7208 11.244C23.3248 11.802 22.7518 12.081 22.0018 12.081ZM22.0018 11.172C22.4098 11.172 22.7068 10.986 22.8928 10.614C23.0788 10.236 23.1718 9.639 23.1718 8.823C23.1718 8.001 23.0788 7.407 22.8928 7.041C22.7068 6.669 22.4098 6.483 22.0018 6.483C21.5938 6.483 21.2968 6.669 21.1108 7.041C20.9248 7.413 20.8318 8.007 20.8318 8.823C20.8318 9.639 20.9248 10.236 21.1108 10.614C21.2968 10.986 21.5938 11.172 22.0018 11.172Z" fill="white"/>
</svg>
