<svg width="24" height="24" viewBox="0 0 24 24" fill="none" xmlns="http://www.w3.org/2000/svg">
<path fill-rule="evenodd" clip-rule="evenodd" d="M18.859 21C20.9563 21 22 19.9105 22 17.7525V6.24746C22 4.08947 20.9563 3 18.859 3H5.15103C3.05369 3 2 4.07899 2 6.24746V17.7525C2 19.921 3.05369 21 5.15103 21H18.859ZM18.9895 19.3134H5.0005C4.10738 19.3134 3.61565 18.8211 3.61565 17.8468V7.96826C3.61565 7.0045 4.10738 6.50167 5.0005 6.50167H18.9895C19.8826 6.50167 20.3843 7.0045 20.3843 7.96826V17.8468C20.3843 18.8211 19.8826 19.3134 18.9895 19.3134ZM10.6302 10.2624C10.9814 10.2624 11.1019 10.1577 11.1019 9.79103V9.17297C11.1019 8.80632 10.9814 8.69108 10.6302 8.69108H10.0381C9.6869 8.69108 9.56648 8.80632 9.56648 9.17297V9.79103C9.56648 10.1577 9.6869 10.2624 10.0381 10.2624H10.6302ZM13.9619 10.2624C14.3131 10.2624 14.4335 10.1577 14.4335 9.79103V9.17297C14.4335 8.80632 14.3131 8.69108 13.9619 8.69108H13.3798C13.0186 8.69108 12.9082 8.80632 12.9082 9.17297V9.79103C12.9082 10.1577 13.0186 10.2624 13.3798 10.2624H13.9619ZM17.3036 10.2624C17.6548 10.2624 17.7652 10.1577 17.7652 9.79103V9.17297C17.7652 8.80632 17.6548 8.69108 17.3036 8.69108H16.7115C16.3603 8.69108 16.2398 8.80632 16.2398 9.17297V9.79103C16.2398 10.1577 16.3603 10.2624 16.7115 10.2624H17.3036ZM7.29854 13.688C7.64977 13.688 7.76016 13.5832 7.76016 13.2166V12.5985C7.76016 12.2319 7.64977 12.1271 7.29854 12.1271H6.70647C6.35524 12.1271 6.23482 12.2319 6.23482 12.5985V13.2166C6.23482 13.5832 6.35524 13.688 6.70647 13.688H7.29854ZM10.6302 13.688C10.9814 13.688 11.1019 13.5832 11.1019 13.2166V12.5985C11.1019 12.2319 10.9814 12.1271 10.6302 12.1271H10.0381C9.6869 12.1271 9.56648 12.2319 9.56648 12.5985V13.2166C9.56648 13.5832 9.6869 13.688 10.0381 13.688H10.6302ZM13.9619 13.688C14.3131 13.688 14.4335 13.5832 14.4335 13.2166V12.5985C14.4335 12.2319 14.3131 12.1271 13.9619 12.1271H13.3798C13.0186 12.1271 12.9082 12.2319 12.9082 12.5985V13.2166C12.9082 13.5832 13.0186 13.688 13.3798 13.688H13.9619ZM17.3036 13.688C17.6548 13.688 17.7652 13.5832 17.7652 13.2166V12.5985C17.7652 12.2319 17.6548 12.1271 17.3036 12.1271H16.7115C16.3603 12.1271 16.2398 12.2319 16.2398 12.5985V13.2166C16.2398 13.5832 16.3603 13.688 16.7115 13.688H17.3036ZM7.29854 17.124C7.64977 17.124 7.76016 17.0088 7.76016 16.6421V16.0241C7.76016 15.6574 7.64977 15.5526 7.29854 15.5526H6.70647C6.35524 15.5526 6.23482 15.6574 6.23482 16.0241V16.6421C6.23482 17.0088 6.35524 17.124 6.70647 17.124H7.29854ZM10.6302 17.124C10.9814 17.124 11.1019 17.0088 11.1019 16.6421V16.0241C11.1019 15.6574 10.9814 15.5526 10.6302 15.5526H10.0381C9.6869 15.5526 9.56648 15.6574 9.56648 16.0241V16.6421C9.56648 17.0088 9.6869 17.124 10.0381 17.124H10.6302ZM13.9619 17.124C14.3131 17.124 14.4335 17.0088 14.4335 16.6421V16.0241C14.4335 15.6574 14.3131 15.5526 13.9619 15.5526H13.3798C13.0186 15.5526 12.9082 15.6574 12.9082 16.0241V16.6421C12.9082 17.0088 13.0186 17.124 13.3798 17.124H13.9619Z" fill="#1A1A1A"/>
</svg>
