<svg width="34" height="30" viewBox="0 0 34 30" fill="none" xmlns="http://www.w3.org/2000/svg">
<path fill-rule="evenodd" clip-rule="evenodd" d="M12 27C12.2115 27 12.5136 26.8627 12.7351 26.7353C18.4048 23.2059 22 19.098 22 14.9216C22 11.451 19.5529 9 16.29 9C14.427 9 12.9164 9.86275 12 11.1863C11.1037 9.87255 9.57301 9 7.70997 9C4.44713 9 2 11.451 2 14.9216C2 19.098 5.59517 23.2059 11.2749 26.7353C11.4864 26.8627 11.7885 27 12 27ZM12 25.3431C11.9597 25.3431 11.8892 25.2941 11.7986 25.2255C7.57905 22.5 3.62135 18.5686 3.62135 14.9216C3.62135 12.3137 5.35347 10.5784 7.68983 10.5784C9.58308 10.5784 10.6707 11.7255 11.3152 12.7059C11.5871 13.098 11.7583 13.2059 12 13.2059C12.2417 13.2059 12.3927 13.0882 12.6848 12.7059C13.3797 11.7451 14.427 10.5784 16.3102 10.5784C18.6465 10.5784 20.3787 12.3137 20.3787 14.9216C20.3787 18.5686 16.4209 22.5 12.2115 25.2255C12.1108 25.2941 12.0403 25.3431 12 25.3431Z" fill="#1A1A1A"/>
<path fill-rule="evenodd" clip-rule="evenodd" d="M12 25.3432C11.9597 25.3432 11.8892 25.2942 11.7986 25.2255C7.57904 22.5001 3.62134 18.5687 3.62134 14.9216C3.62134 12.3138 5.35346 10.5785 7.68982 10.5785C9.58307 10.5785 10.6707 11.7255 11.3152 12.7059C11.5871 13.0981 11.7583 13.2059 12 13.2059C12.2417 13.2059 12.3927 13.0883 12.6848 12.7059C13.3796 11.7452 14.427 10.5785 16.3102 10.5785C18.6465 10.5785 20.3786 12.3138 20.3786 14.9216C20.3786 18.5687 16.4209 22.5001 12.2115 25.2255C12.1108 25.2942 12.0403 25.3432 12 25.3432Z" fill="white"/>
<rect x="11.5" y="1" width="21" height="16" rx="8" fill="#01A54E"/>
<rect x="11.5" y="1" width="21" height="16" rx="8" stroke="#FFE44D" stroke-width="2"/>
<path d="M19.3035 12.081C18.5535 12.081 17.9805 11.805 17.5845 11.253C17.1885 10.695 16.9905 9.885 16.9905 8.823C16.9905 7.767 17.1885 6.963 17.5845 6.411C17.9805 5.853 18.5535 5.574 19.3035 5.574C20.0535 5.574 20.6265 5.853 21.0225 6.411C21.4185 6.963 21.6165 7.767 21.6165 8.823C21.6165 9.879 21.4185 10.686 21.0225 11.244C20.6265 11.802 20.0535 12.081 19.3035 12.081ZM19.3035 11.172C19.7115 11.172 20.0085 10.986 20.1945 10.614C20.3805 10.236 20.4735 9.639 20.4735 8.823C20.4735 8.001 20.3805 7.407 20.1945 7.041C20.0085 6.669 19.7115 6.483 19.3035 6.483C18.8955 6.483 18.5985 6.669 18.4125 7.041C18.2265 7.413 18.1335 8.007 18.1335 8.823C18.1335 9.639 18.2265 10.236 18.4125 10.614C18.5985 10.986 18.8955 11.172 19.3035 11.172ZM24.7 12.081C23.95 12.081 23.377 11.805 22.981 11.253C22.585 10.695 22.387 9.885 22.387 8.823C22.387 7.767 22.585 6.963 22.981 6.411C23.377 5.853 23.95 5.574 24.7 5.574C25.45 5.574 26.023 5.853 26.419 6.411C26.815 6.963 27.013 7.767 27.013 8.823C27.013 9.879 26.815 10.686 26.419 11.244C26.023 11.802 25.45 12.081 24.7 12.081ZM24.7 11.172C25.108 11.172 25.405 10.986 25.591 10.614C25.777 10.236 25.87 9.639 25.87 8.823C25.87 8.001 25.777 7.407 25.591 7.041C25.405 6.669 25.108 6.483 24.7 6.483C24.292 6.483 23.995 6.669 23.809 7.041C23.623 7.413 23.53 8.007 23.53 8.823C23.53 9.639 23.623 10.236 23.809 10.614C23.995 10.986 24.292 11.172 24.7 11.172Z" fill="white"/>
</svg>
