<svg width="24" height="24" viewBox="0 0 24 24" fill="none" xmlns="http://www.w3.org/2000/svg">
<path fill-rule="evenodd" clip-rule="evenodd" d="M14.8834 9.10646C15.7194 9.10646 16.4393 8.56738 16.7412 7.8222H19.2879C19.6749 7.8222 20 7.47339 20 7.05323C20 6.63307 19.6749 6.29219 19.2879 6.29219H16.7412C16.447 5.53907 15.7271 5 14.8834 5C14.0397 5 13.3198 5.53907 13.0256 6.29219H4.73537C4.32511 6.29219 4 6.63307 4 7.05323C4 7.47339 4.32511 7.8222 4.73537 7.8222H13.0256C13.3275 8.56738 14.0474 9.10646 14.8834 9.10646ZM14.8834 8.02831C14.3493 8.02831 13.9313 7.5923 13.9313 7.05323C13.9313 6.4983 14.3493 6.07022 14.8834 6.07022C15.4253 6.07022 15.8355 6.4983 15.8355 7.05323C15.8355 7.5923 15.4253 8.02831 14.8834 8.02831ZM9.20948 14.0532C10.0455 14.0532 10.7654 13.5221 11.0672 12.761H19.2646C19.6749 12.761 20 12.4202 20 12C20 11.5798 19.6749 11.239 19.2646 11.239H11.0672C10.7654 10.4858 10.0455 9.9547 9.20948 9.9547C8.36575 9.9547 7.64586 10.4858 7.34398 11.239H4.71214C4.32511 11.239 4 11.5798 4 12C4 12.4122 4.32511 12.761 4.71214 12.761H7.34398C7.64586 13.5221 8.36575 14.0532 9.20948 14.0532ZM9.20948 12.983C8.67537 12.983 8.24964 12.547 8.24964 12C8.24964 11.4451 8.67537 11.0249 9.20948 11.0249C9.74359 11.0249 10.1616 11.4451 10.1616 12C10.1616 12.547 9.74359 12.983 9.20948 12.983ZM14.8834 19C15.7271 19 16.447 18.4609 16.7412 17.7078H19.2879C19.6749 17.7078 20 17.3669 20 16.9468C20 16.5187 19.6749 16.1857 19.2879 16.1857H16.7412C16.447 15.4326 15.7271 14.8935 14.8834 14.8935C14.0474 14.8935 13.3198 15.4326 13.0256 16.1857H4.73537C4.32511 16.1857 4 16.5266 4 16.9468C4 17.359 4.32511 17.7078 4.73537 17.7078H13.0256C13.3198 18.4609 14.0397 19 14.8834 19ZM14.8834 17.9219C14.3493 17.9219 13.9313 17.4858 13.9313 16.9468C13.9313 16.3918 14.3493 15.9717 14.8834 15.9717C15.4253 15.9717 15.8355 16.3918 15.8355 16.9468C15.8355 17.4858 15.4253 17.9219 14.8834 17.9219Z" fill="#1A1A1A"/>
</svg>
