<svg width="24" height="24" viewBox="0 0 24 24" fill="none" xmlns="http://www.w3.org/2000/svg">
<path fill-rule="evenodd" clip-rule="evenodd" d="M12.4366 19C12.9634 19 13.2475 18.5077 13.497 17.9599L18.8059 6.51857C18.9376 6.24814 19 6.00545 19 5.80436C19 5.34671 18.6604 5 18.196 5C17.9881 5 17.7455 5.05547 17.4752 5.18722L6.0396 10.4918C5.51287 10.7345 5 11.0258 5 11.5597C5 12.0936 5.51287 12.3987 6.19208 12.3987L11.4386 12.4195C11.5356 12.4195 11.5842 12.4611 11.5842 12.5651L11.598 17.8004C11.598 18.4591 11.8891 19 12.4366 19Z" fill="#1A1A1A"/>
</svg>
