<svg width="24" height="24" viewBox="0 0 24 24" fill="none" xmlns="http://www.w3.org/2000/svg">
<g clip-path="url(#clip0_1_840)">
<path d="M19.7761 4.22386C17.7142 2.16211 14.978 1.02021 12.0647 1.0032C12.0534 1.00281 12.0421 1.0026 12.0308 1.00277C5.96508 0.979012 1 5.89 1 12.0011C1 18.0797 5.91915 22.9999 11.9988 22.9999C14.9292 22.9999 17.6948 21.8596 19.7761 19.7785C24.0743 15.4801 24.0749 8.52274 19.7761 4.22386ZM12.6432 21.137V17.1972C13.6451 17.2628 14.6193 17.4811 15.5377 17.8404C14.7921 19.091 13.8129 20.2154 12.6432 21.137ZM12.6432 15.906V12.6456H17.159C17.0757 14.0446 16.7231 15.4165 16.1401 16.6919C15.0352 16.2429 13.8566 15.9761 12.6432 15.906ZM12.6432 11.3567V8.09624C13.8566 8.02621 15.0352 7.75936 16.1402 7.31034C16.7231 8.58577 17.0757 9.95769 17.1591 11.3567H12.6432ZM12.6432 6.80509V2.8653C13.8129 3.78687 14.7921 4.91132 15.5377 6.16192C14.6193 6.52127 13.6451 6.73952 12.6432 6.80509ZM14.2643 2.55884C15.7474 2.91466 17.099 3.61162 18.2314 4.56199C17.7542 4.96254 17.2439 5.31321 16.7073 5.61151C16.0527 4.48946 15.2302 3.45717 14.2643 2.55884ZM11.3543 2.93395V6.80509C10.3779 6.7412 9.42771 6.53248 8.52994 6.18933C9.2592 4.95867 10.2143 3.84934 11.3543 2.93395ZM7.35548 5.64725C6.79501 5.34131 6.26265 4.97873 5.76607 4.56199C6.9279 3.58705 8.32027 2.87849 9.84867 2.53164C8.85981 3.44583 8.01991 4.49995 7.35548 5.64725ZM11.3543 8.09628V11.3567H6.92472C7.00751 9.9683 7.35535 8.60661 7.93046 7.33939C9.01427 7.77074 10.1676 8.02775 11.3543 8.09628ZM11.3543 12.6456V15.906C10.1676 15.9746 9.01427 16.2316 7.9305 16.6629C7.35539 15.3957 7.00755 14.034 6.92476 12.6456H11.3543ZM11.3543 17.1972V21.0684C10.2143 20.153 9.2592 19.0436 8.52994 17.813C9.42771 17.4698 10.3779 17.2611 11.3543 17.1972ZM9.84867 21.4707C8.32027 21.1238 6.9279 20.4153 5.76607 19.4403C6.26265 19.0236 6.79501 18.661 7.35548 18.3551C8.01991 19.5024 8.85981 20.5565 9.84867 21.4707ZM16.7073 18.3908C17.2439 18.6891 17.7542 19.0397 18.2315 19.4403C17.099 20.3907 15.7474 21.0877 14.2643 21.4435C15.2302 20.5452 16.0527 19.5129 16.7073 18.3908ZM17.3023 17.2463C17.9671 15.7986 18.3649 14.2375 18.45 12.6456H21.6867C21.5375 14.9104 20.6089 16.9656 19.1665 18.5443C18.5862 18.0446 17.9619 17.6102 17.3023 17.2463ZM21.6867 11.3567H18.45C18.3649 9.76474 17.9671 8.20365 17.3023 6.75602C17.9619 6.39207 18.5862 5.95767 19.1665 5.45795C20.6089 7.03675 21.5376 9.09192 21.6867 11.3567ZM4.831 5.45795C5.43151 5.97511 6.07953 6.42172 6.76459 6.79327C6.11012 8.23046 5.71816 9.77836 5.63383 11.3567H2.31083C2.45996 9.09192 3.38862 7.03675 4.831 5.45795ZM2.31083 12.6456H5.63383C5.71816 14.2239 6.11012 15.7718 6.76459 17.209C6.07953 17.5806 5.43151 18.0272 4.831 18.5443C3.38862 16.9656 2.45996 14.9104 2.31083 12.6456Z" fill="#1A1A1A"/>
</g>
<defs>
<clipPath id="clip0_1_840">
<rect width="22" height="22" fill="white" transform="translate(1 1)"/>
</clipPath>
</defs>
</svg>
