<svg width="24" height="24" viewBox="0 0 24 24" fill="none" xmlns="http://www.w3.org/2000/svg">
<path fill-rule="evenodd" clip-rule="evenodd" d="M17.5167 22C19.4602 22 20.5193 20.9924 20.5193 19.0687V14.0712C21.4756 13.888 22 13.1552 22 12.0865V9.52163C22 8.2799 21.3111 7.49618 20.0463 7.49618H17.8663C18.4422 6.93639 18.7815 6.20356 18.7815 5.37913C18.7815 3.40458 17.1979 2 15.2134 2C13.7429 2 12.5296 2.80407 11.9949 4.23919C11.4602 2.80407 10.2571 2 8.78663 2C6.79177 2 5.21851 3.40458 5.21851 5.37913C5.21851 6.20356 5.54756 6.93639 6.12339 7.49618H3.95373C2.75064 7.49618 2 8.2799 2 9.52163V12.0865C2 13.1552 2.51414 13.888 3.47044 14.0712V19.0687C3.47044 20.9924 4.53985 22 6.48329 22H17.5167ZM11.1517 7.49618H9.55784C7.86118 7.49618 6.9563 6.50891 6.9563 5.45038C6.9563 4.35115 7.7892 3.69975 8.88946 3.69975C10.1542 3.69975 11.1517 4.66667 11.1517 6.28499V7.49618ZM14.4422 7.49618H12.838V6.28499C12.838 4.66667 13.8458 3.69975 15.1105 3.69975C16.2108 3.69975 17.0334 4.35115 17.0334 5.45038C17.0334 6.50891 16.108 7.49618 14.4422 7.49618ZM11.09 12.5751H4.37532C3.86118 12.5751 3.65553 12.3613 3.65553 11.8524V9.74555C3.65553 9.23664 3.86118 9.03308 4.37532 9.03308H11.09V12.5751ZM19.635 12.5751H12.91V9.03308H19.635C20.1491 9.03308 20.3445 9.23664 20.3445 9.74555V11.8524C20.3445 12.3613 20.1491 12.5751 19.635 12.5751ZM11.09 20.4733H6.46272C5.60925 20.4733 5.12596 19.9949 5.12596 19.1501V14.112H11.09V20.4733ZM17.527 20.4733H12.91V14.112H18.8638V19.1501C18.8638 19.9949 18.3805 20.4733 17.527 20.4733Z" fill="#1A1A1A"/>
</svg>
