<svg width="24" height="24" viewBox="0 0 24 24" fill="none" xmlns="http://www.w3.org/2000/svg">
<path fill-rule="evenodd" clip-rule="evenodd" d="M11.99 2C16.4049 2 20 5.5012 20 9.79512C20 11.3797 19.5084 12.9114 18.578 14.2426L18.4939 14.3597C18.4823 14.3744 18.4715 14.3872 18.461 14.3986L18.4298 14.4295L12.9468 21.5383C12.7228 21.8273 12.3687 22 11.99 22C11.6737 22 11.383 21.8799 11.1496 21.6718L11.0098 21.5315L5.57322 14.4359C5.53495 14.3985 5.50966 14.3665 5.48484 14.3255L5.455 14.2712L5.27871 14.0155C4.55699 12.9212 4.13304 11.699 4.02665 10.4197L4.00667 10.0987L4 9.77561C4 5.48832 7.58832 2 11.99 2ZM11.99 3.65854C8.51698 3.65854 5.68 6.40888 5.68 9.79512C5.68 11.0463 6.08056 12.2669 6.80678 13.2909L6.82739 13.3118L6.873 13.3785L11.99 20.042L17.157 13.3249L17.1643 13.3053C17.8457 12.3431 18.2368 11.2281 18.293 10.0822L18.3 9.79512C18.3 6.41473 15.4689 3.65854 11.99 3.65854ZM12 12C13.3807 12 14.5 10.8807 14.5 9.5C14.5 8.11929 13.3807 7 12 7C10.6193 7 9.5 8.11929 9.5 9.5C9.5 10.8807 10.6193 12 12 12Z" fill="#1A1A1A"/>
</svg>
