<svg width="24" height="24" viewBox="0 0 24 24" fill="none" xmlns="http://www.w3.org/2000/svg">
<path fill-rule="evenodd" clip-rule="evenodd" d="M15.3317 22C15.6851 22 16.0385 21.9106 16.3413 21.7417L21.6216 18.7909C22.2274 18.463 22.5 17.9861 22.5 17.3204V3.53999C22.5 2.80477 22.0861 2.39742 21.3591 2.39742C21.1067 2.39742 20.8442 2.4769 20.5111 2.65574L15.1601 5.58669L9.67789 2.27819C9.3649 2.09935 9.01154 2 8.65817 2C8.29471 2 7.93125 2.09935 7.61827 2.27819L2.36827 5.21908C1.7726 5.55688 1.5 6.03378 1.5 6.69945V20.46C1.5 21.1952 1.91394 21.6125 2.64087 21.6125C2.89327 21.6125 3.15577 21.5231 3.47885 21.3443L8.61779 18.622L14.201 21.7019C14.5644 21.9006 14.9582 22 15.3317 22ZM3.25673 19.5559C3.17596 19.5559 3.12548 19.4963 3.12548 19.3969V7.08694C3.12548 6.84848 3.21635 6.67958 3.45865 6.54049L7.59808 4.15599C7.72933 4.08644 7.84038 4.02683 7.96154 3.95728V17.0422L3.40817 19.5062C3.35769 19.5261 3.30721 19.5559 3.25673 19.5559ZM14.413 19.8639C14.2716 19.7844 14.1202 19.7149 13.9688 19.6354L9.58702 17.2012V4.16592C9.68798 4.22553 9.80913 4.28515 9.9101 4.34476L14.413 7.04719V19.8639ZM16.0385 20.0427V6.94784L20.5918 4.50373C20.6423 4.47392 20.6928 4.45405 20.7332 4.45405C20.824 4.45405 20.8745 4.51366 20.8745 4.61302V16.923C20.8745 17.1714 20.7736 17.3403 20.5413 17.4794L16.4928 19.7943C16.3413 19.8838 16.1899 19.9732 16.0385 20.0427Z" fill="#1A1A1A"/>
</svg>
