<svg width="24" height="24" viewBox="0 0 24 24" fill="none" xmlns="http://www.w3.org/2000/svg">
<path fill-rule="evenodd" clip-rule="evenodd" d="M12 2C17.5228 2 22 6.47715 22 12C22 17.5228 17.5228 22 12 22C6.47715 22 2 17.5228 2 12C2 6.47715 6.47715 2 12 2ZM12 3.7C7.41604 3.7 3.7 7.41604 3.7 12C3.7 16.584 7.41604 20.3 12 20.3C16.584 20.3 20.3 16.584 20.3 12C20.3 7.41604 16.584 3.7 12 3.7ZM10.6847 10.744C10.6847 10.3331 10.362 10 9.96396 10C9.56592 10 9.24324 10.3331 9.24324 10.744L9.23803 10.875C9.16501 11.7711 8.32531 12.2319 6.72072 12.2319C6.32268 12.2319 6 12.565 6 12.9759C6 13.3868 6.32268 13.7198 6.72072 13.7198C9.09284 13.7198 10.6847 12.7632 10.6847 10.744ZM15.4596 16.5668C14.5424 15.8327 13.3216 15.4193 12.0289 15.4193C10.7028 15.4193 9.45278 15.8544 8.52923 16.6231C8.20678 16.8915 8.15615 17.3789 8.41615 17.7117C8.67615 18.0446 9.14832 18.0968 9.47077 17.8285C10.1216 17.2868 11.0382 16.9677 12.0289 16.9677C12.9953 16.9677 13.8918 17.2712 14.5404 17.7904C14.8677 18.0524 15.3389 17.9909 15.5927 17.653C15.8465 17.3151 15.7869 16.8288 15.4596 16.5668ZM14.036 10C13.638 10 13.3153 10.3331 13.3153 10.744C13.3153 12.7632 14.9072 13.7198 17.2793 13.7198C17.6773 13.7198 18 13.3868 18 12.9759C18 12.565 17.6773 12.2319 17.2793 12.2319C15.5983 12.2319 14.7568 11.7262 14.7568 10.744C14.7568 10.3331 14.4341 10 14.036 10Z" fill="#1A1A1A"/>
</svg>
