<svg width="24" height="24" viewBox="0 0 24 24" fill="none" xmlns="http://www.w3.org/2000/svg">
<path fill-rule="evenodd" clip-rule="evenodd" d="M22.3595 5.0335C22.3582 5.0335 22.3568 5.03333 22.3555 5.03333H16.5117V4.4C16.5117 3.35236 15.6443 2.5 14.5781 2.5H9.42188C8.35571 2.5 7.48828 3.35236 7.48828 4.4V5.03333H1.64453C1.28568 5.03333 1 5.32229 1 5.66667V19.6C1 20.6476 1.86743 21.5 2.93359 21.5H21.0664C22.1326 21.5 23 20.6476 23 19.6V5.68003C23 5.6792 23 5.67838 23 5.67755C22.9753 5.2616 22.715 5.03581 22.3595 5.0335ZM8.77734 4.4C8.77734 4.05084 9.06654 3.76667 9.42188 3.76667H14.5781C14.9335 3.76667 15.2227 4.05084 15.2227 4.4V5.03333H8.77734V4.4ZM21.4612 6.3L19.4596 12.2002C19.3718 12.4593 19.1261 12.6333 18.8483 12.6333H15.2227V12C15.2227 11.6502 14.9341 11.3667 14.5781 11.3667H9.42188C9.06587 11.3667 8.77734 11.6502 8.77734 12V12.6333H5.15169C4.8739 12.6333 4.62817 12.4593 4.54039 12.2002L2.53882 6.3H21.4612ZM13.9336 12.6333V13.9H10.0664V12.6333H13.9336ZM21.7109 19.6C21.7109 19.9492 21.4217 20.2333 21.0664 20.2333H2.93359C2.57826 20.2333 2.28906 19.9492 2.28906 19.6V9.56942L3.31746 12.6008C3.58098 13.378 4.31816 13.9 5.15169 13.9H8.77734V14.5333C8.77734 14.8832 9.06587 15.1667 9.42188 15.1667H14.5781C14.9341 15.1667 15.2227 14.8832 15.2227 14.5333V13.9H18.8483C19.6818 13.9 20.419 13.378 20.6825 12.6008L21.7109 9.56942V19.6Z" fill="#1A1A1A"/>
</svg>
