<svg width="24" height="24" viewBox="0 0 24 24" fill="none" xmlns="http://www.w3.org/2000/svg">
<path d="M11.5002 11.6268C11.3294 11.6268 11.1654 11.5588 11.0445 11.4379L9.30431 9.69769C9.05254 9.44609 9.05254 9.03788 9.30431 8.78628C9.55591 8.53451 9.96411 8.53451 10.2157 8.78628L11.5002 10.0706L13.8375 7.73338C14.0891 7.48178 14.4973 7.48178 14.7489 7.73338C15.0007 7.98515 15.0007 8.39318 14.7489 8.64495L11.9559 11.4379C11.8351 11.5588 11.6711 11.6268 11.5002 11.6268Z" fill="#1A1A1A"/>
<path fill-rule="evenodd" clip-rule="evenodd" d="M12.0265 3.93835C8.91263 3.93835 6.37915 6.47166 6.37915 9.58572C6.37915 12.6998 8.91263 15.2331 12.0265 15.2331C15.1406 15.2331 17.6741 12.6998 17.6741 9.58572C17.6741 6.47166 15.1406 3.93835 12.0265 3.93835ZM12.0265 13.944C9.62346 13.944 7.66821 11.989 7.66821 9.58572C7.66821 7.1825 9.62346 5.22742 12.0265 5.22742C14.4297 5.22742 16.385 7.1825 16.385 9.58572C16.385 11.989 14.4297 13.944 12.0265 13.944Z" fill="#1A1A1A"/>
<path fill-rule="evenodd" clip-rule="evenodd" d="M20.4817 11.0765C20.5719 10.5661 20.492 10.0426 20.2622 9.58568C20.492 9.1288 20.5717 8.60529 20.4817 8.0947C20.3918 7.58428 20.1378 7.11968 19.7655 6.76888C19.8253 6.26098 19.7212 5.74183 19.4619 5.29284C19.2027 4.84385 18.8051 4.49406 18.3355 4.2918C18.2178 3.79414 17.9425 3.34196 17.5454 3.00862C17.1481 2.67544 16.655 2.48275 16.1444 2.45338C15.8636 2.02588 15.4502 1.69505 14.9629 1.51781C14.4759 1.34056 13.9465 1.32814 13.4567 1.47517C13.0466 1.16952 12.5449 1 12.0265 1C11.5082 1 11.0065 1.16952 10.5964 1.47517C10.1066 1.32814 9.57725 1.34056 9.09 1.51781C8.60291 1.69522 8.1895 2.02604 7.90869 2.45338C7.39811 2.48292 6.9048 2.67544 6.50768 3.00862C6.11056 3.34196 5.83529 3.79414 5.71763 4.29197C5.24783 4.49423 4.85037 4.84385 4.59104 5.29284C4.33189 5.74183 4.22782 6.26098 4.28758 6.76888C3.91529 7.11968 3.66134 7.58428 3.57138 8.0947C3.48124 8.60529 3.56114 9.1288 3.79092 9.58568C3.56114 10.0426 3.48124 10.5661 3.57138 11.0765C3.66134 11.5871 3.91529 12.0517 4.28758 12.4025C4.22782 12.9104 4.33189 13.4295 4.59104 13.8785C4.85037 14.3275 5.24799 14.6771 5.71763 14.8794C5.79752 15.2176 5.95043 15.5348 6.16477 15.8079L4.2765 19.7597C4.16992 19.9826 4.2003 20.2468 4.35438 20.44C4.50863 20.633 4.75956 20.7209 5.00059 20.6662L7.84491 20.0212L9.12994 22.6394C9.2382 22.8601 9.46278 23 9.70851 23H9.71187C9.95894 22.9988 10.1835 22.8563 10.2901 22.6334L12.0265 18.9995L13.763 22.6334C13.8694 22.8563 14.094 22.9986 14.3411 23H14.3446C14.5902 23 14.8147 22.8601 14.9232 22.6394L16.2082 20.0212L19.0523 20.6662C19.2934 20.7209 19.5443 20.633 19.6986 20.44C19.8528 20.2468 19.883 19.9826 19.7764 19.7597L17.8882 15.8079C18.1025 15.5348 18.2554 15.2176 18.3353 14.8794C18.8051 14.6771 19.2027 14.3275 19.4619 13.8785C19.721 13.4295 19.8251 12.9104 19.7655 12.4025C20.1376 12.0517 20.3918 11.5871 20.4817 11.0765ZM18.9949 9.9823C19.1873 10.2285 19.2664 10.5458 19.2123 10.8527C19.1581 11.1597 18.9751 11.4306 18.7104 11.5963C18.4597 11.7531 18.3477 12.0604 18.439 12.3417C18.5356 12.6388 18.5015 12.9639 18.3455 13.234C18.1898 13.5039 17.9251 13.6961 17.6196 13.761C17.3304 13.8226 17.1201 14.0732 17.1097 14.3688C17.0986 14.6808 16.9554 14.9747 16.7166 15.1751C16.4778 15.3755 16.1635 15.4657 15.8542 15.4222C15.5613 15.3809 15.278 15.5447 15.1672 15.8188C15.0502 16.1084 14.8151 16.3356 14.522 16.4422C14.2291 16.5488 13.903 16.526 13.6272 16.3794C13.3659 16.2406 13.0438 16.2973 12.8459 16.5172C12.6369 16.7492 12.3382 16.8823 12.0265 16.8823C11.7148 16.8823 11.416 16.7492 11.207 16.5172C11.0815 16.3777 10.9061 16.3041 10.728 16.3041C10.6251 16.3041 10.5214 16.3286 10.4257 16.3794C10.1501 16.526 9.82382 16.5488 9.53093 16.4422C9.23804 16.3356 9.00288 16.1084 8.88573 15.8188C8.77495 15.5447 8.49179 15.3812 8.19873 15.4222C7.88939 15.4655 7.57518 15.3755 7.33634 15.1751C7.09749 14.9747 6.95432 14.6808 6.94324 14.3688C6.93284 14.0732 6.72269 13.8226 6.43332 13.761C6.12801 13.6961 5.86332 13.5039 5.70739 13.234C5.55163 12.9639 5.51755 12.6388 5.6139 12.3417C5.70521 12.0604 5.59325 11.7531 5.34249 11.5963C5.0778 11.4306 4.89484 11.1597 4.8408 10.8527C4.78658 10.5458 4.86581 10.2285 5.05799 9.9823C5.23994 9.74916 5.23994 9.42219 5.05799 9.18906C4.86581 8.94282 4.78658 8.6256 4.8408 8.3186C4.89484 8.01161 5.0778 7.74054 5.34249 7.57505C5.59325 7.41828 5.70521 7.11095 5.6139 6.82964C5.51755 6.53255 5.55163 6.20743 5.70739 5.93737C5.86332 5.66747 6.12784 5.47529 6.43332 5.41033C6.72252 5.34873 6.93284 5.09814 6.94324 4.80256C6.95432 4.49053 7.09749 4.19663 7.33634 3.99623C7.57502 3.79582 7.88939 3.70585 8.19873 3.74916C8.49162 3.79045 8.77478 3.62663 8.88573 3.35237C9.00288 3.063 9.23804 2.83574 9.53093 2.72915C9.82382 2.6224 10.1499 2.6454 10.4257 2.79193C10.6869 2.93057 11.0092 2.87384 11.207 2.65413C11.4162 2.42216 11.7148 2.28906 12.0265 2.28906C12.3383 2.28906 12.6369 2.42216 12.8459 2.65413C13.044 2.87384 13.366 2.93074 13.6272 2.79193C13.903 2.6454 14.2293 2.62257 14.5222 2.72915C14.8151 2.83574 15.0502 3.063 15.1672 3.35253C15.2782 3.62663 15.5615 3.79028 15.8544 3.74916C16.1635 3.70585 16.4779 3.79582 16.7168 3.99623C16.9554 4.19663 17.0988 4.49053 17.1097 4.80256C17.1203 5.0983 17.3304 5.34873 17.6198 5.41033C17.9251 5.47529 18.1898 5.66747 18.3455 5.93737C18.5015 6.20743 18.5356 6.53255 18.4392 6.82964C18.3479 7.11095 18.4597 7.41828 18.7104 7.57505C18.9753 7.74071 19.1583 8.01178 19.2123 8.3186C19.2665 8.6256 19.1873 8.94282 18.9951 9.18906C18.813 9.42219 18.813 9.74916 18.9949 9.9823ZM15.9965 18.6514C15.7053 18.5854 15.4069 18.7279 15.2753 18.996L14.3523 20.8769L12.9671 17.978C13.1403 17.9038 13.3048 17.8095 13.4567 17.6962C13.9465 17.8432 14.4759 17.8308 14.9631 17.6535C15.4502 17.4763 15.8636 17.1453 16.1444 16.718C16.3782 16.7045 16.608 16.6564 16.8269 16.5768L18.0397 19.1148L15.9965 18.6514ZM8.7778 18.996C8.6677 18.7719 8.44093 18.6354 8.1994 18.6354C8.15207 18.6354 8.10423 18.6407 8.05657 18.6514L6.01337 19.1146L7.22623 16.5766C7.4451 16.6564 7.67505 16.7044 7.90869 16.718C8.1895 17.1453 8.60291 17.4761 9.09 17.6534C9.57725 17.8308 10.1066 17.843 10.5964 17.6962C10.7483 17.8093 10.9128 17.9038 11.086 17.9778L9.70079 20.8767L8.7778 18.996Z" fill="#1A1A1A"/>
</svg>
