<svg width="24" height="24" viewBox="0 0 24 24" fill="none" xmlns="http://www.w3.org/2000/svg">
<path fill-rule="evenodd" clip-rule="evenodd" d="M7.70655 21C8.22122 21 8.60045 20.7479 9.22348 20.1986L12.3205 17.4791H17.7562C20.474 17.4791 22 15.9123 22 13.2379V7.24123C22 4.56682 20.474 3 17.7562 3H6.24379C3.53499 3 2 4.56682 2 7.24123V13.2379C2 15.9213 3.58014 17.4791 6.18059 17.4791H6.55079V19.6853C6.55079 20.4867 6.97517 21 7.70655 21ZM8.15801 18.9829V16.4166C8.15801 15.8853 7.92325 15.6782 7.41761 15.6782H6.307C4.60948 15.6782 3.79684 14.8227 3.79684 13.1839V7.29526C3.79684 5.6564 4.60948 4.80095 6.307 4.80095H17.702C19.3905 4.80095 20.2032 5.6564 20.2032 7.29526V13.1839C20.2032 14.8227 19.3905 15.6782 17.702 15.6782H12.2212C11.6704 15.6782 11.3995 15.7682 11.0203 16.1645L8.15801 18.9829ZM8.96163 12.8597C9.90068 12.8597 11.6343 11.7431 11.6343 9.61801C11.6343 8.39336 10.8488 7.43886 9.65688 7.43886C8.58239 7.43886 7.77878 8.19526 7.77878 9.25782C7.77878 10.2754 8.41986 11.0498 9.41309 11.0498C9.80135 11.0498 10.1716 10.9687 10.4063 10.6896H10.5147C10.2257 11.3739 9.57562 11.8512 8.91648 12.0133C8.60948 12.0853 8.51016 12.2384 8.51016 12.4455C8.51016 12.6886 8.69977 12.8597 8.96163 12.8597ZM13.7111 12.8597C14.6501 12.8597 16.3837 11.7431 16.3837 9.61801C16.3837 8.39336 15.5982 7.43886 14.4063 7.43886C13.3318 7.43886 12.5282 8.19526 12.5282 9.25782C12.5282 10.2754 13.1693 11.0498 14.1625 11.0498C14.5598 11.0498 14.93 10.9687 15.1648 10.6896H15.2641C14.9752 11.3739 14.3251 11.8512 13.6659 12.0133C13.3679 12.0853 13.2596 12.2384 13.2596 12.4455C13.2596 12.6886 13.4492 12.8597 13.7111 12.8597Z" fill="#1A1A1A"/>
</svg>
