<svg width="24" height="24" viewBox="0 0 24 24" fill="none" xmlns="http://www.w3.org/2000/svg">
<path fill-rule="evenodd" clip-rule="evenodd" d="M12 20C16.3765 20 20 16.3765 20 12C20 7.63137 16.3686 4 11.9922 4C7.62353 4 4 7.63137 4 12C4 16.3765 7.63137 20 12 20ZM11.851 13.702C11.4275 13.702 11.1922 13.4824 11.1922 13.0588V12.949C11.1922 12.1412 11.6314 11.702 12.2196 11.2941C12.949 10.8 13.2941 10.5176 13.2941 9.95294C13.2941 9.33333 12.8078 8.9098 12.0549 8.9098C11.5059 8.9098 11.0902 9.18431 10.8392 9.63137C10.5725 9.9451 10.502 10.1882 10.0314 10.1882C9.75686 10.1882 9.46667 9.99216 9.46667 9.62353C9.46667 9.48235 9.4902 9.34902 9.52941 9.21569C9.74118 8.4549 10.6902 7.79608 12.102 7.79608C13.5059 7.79608 14.7216 8.52549 14.7216 9.8902C14.7216 10.8784 14.149 11.349 13.3569 11.8902C12.7843 12.2745 12.5098 12.5569 12.5098 13.0196V13.1216C12.5098 13.4431 12.2667 13.702 11.851 13.702ZM11.8745 16.0627C11.4275 16.0627 10.9961 15.702 10.9961 15.2157C10.9961 14.7294 11.4196 14.3686 11.8745 14.3686C12.3373 14.3686 12.7608 14.7216 12.7608 15.2157C12.7608 15.7098 12.3294 16.0627 11.8745 16.0627Z" fill="#1A1A1A"/>
</svg>
