<svg width="24" height="24" viewBox="0 0 24 24" fill="none" xmlns="http://www.w3.org/2000/svg">
<path fill-rule="evenodd" clip-rule="evenodd" d="M15.7041 18C15.8993 18 16.0883 17.9242 16.2269 17.7788L19.7795 14.158C19.918 14.019 19.9999 13.8231 19.9999 13.6524C19.9999 13.2354 19.7102 12.9573 19.3196 12.9573C19.1118 12.9573 18.9543 13.0395 18.8283 13.1659L17.2662 14.7709L16.3403 15.8768L16.4032 14.4171V6.71406C16.4032 6.29068 16.1198 6 15.7041 6C15.2883 6 15.0049 6.29068 15.0049 6.71406V14.4171L15.0679 15.8768L14.1419 14.7709L12.5798 13.1659C12.4538 13.0395 12.3026 12.9573 12.0948 12.9573C11.698 12.9573 11.4082 13.2354 11.4082 13.6524C11.4082 13.8231 11.4901 14.019 11.6287 14.158L15.1813 17.7788C15.3261 17.9242 15.5151 18 15.7041 18Z" fill="#1A1A1A"/>
<path fill-rule="evenodd" clip-rule="evenodd" d="M8.29586 18C8.70529 18 8.99504 17.7093 8.99504 17.2859V9.58294L8.93205 8.12322L9.858 9.22907L11.4201 10.8341C11.5461 10.9605 11.6973 11.0427 11.9051 11.0427C12.302 11.0427 12.5854 10.7646 12.5854 10.3476C12.5854 10.1769 12.5098 9.98104 12.3713 9.84202L8.81238 6.22117C8.6738 6.07583 8.48483 6 8.29586 6C8.1006 6 7.91163 6.07583 7.77305 6.22117L4.22046 9.84202C4.08189 9.98104 4 10.1769 4 10.3476C4 10.7646 4.28345 11.0427 4.68028 11.0427C4.88815 11.0427 5.04562 10.9605 5.1716 10.8341L6.72743 9.22907L7.65967 8.12322L7.59038 9.58294V17.2859C7.59038 17.7093 7.88014 18 8.29586 18Z" fill="#1A1A1A"/>
</svg>
