<svg width="24" height="24" viewBox="0 0 24 24" fill="none" xmlns="http://www.w3.org/2000/svg">
<path fill-rule="evenodd" clip-rule="evenodd" d="M18.1661 21.3357C18.5354 21.0582 18.6164 20.6016 18.3913 19.957L16.5091 14.3797L21.3181 10.951C21.8765 10.5571 22.1016 10.1363 21.9576 9.69767C21.8135 9.25901 21.3902 9.04415 20.6968 9.0531L14.798 9.09786L13.0059 3.49371C12.7897 2.84019 12.4655 2.5 11.9972 2.5C11.5379 2.5 11.2137 2.84019 10.9976 3.49371L9.20545 9.09786L3.3067 9.0531C2.61326 9.04415 2.18999 9.25901 2.04589 9.69767C1.8928 10.1363 2.12695 10.5571 2.6853 10.951L7.49436 14.3797L5.61216 19.957C5.38702 20.6016 5.46807 21.0582 5.83731 21.3357C6.20654 21.6222 6.67484 21.5237 7.23319 21.1208L11.9972 17.6384L16.7703 21.1208C17.3286 21.5237 17.7879 21.6222 18.1661 21.3357Z" fill="#1A1A1A"/>
</svg>
