<svg width="24" height="24" viewBox="0 0 24 24" fill="none" xmlns="http://www.w3.org/2000/svg">
<path fill-rule="evenodd" clip-rule="evenodd" d="M12 22C12.1733 22 12.4549 21.934 12.7256 21.78C18.8881 18.2706 21 16.7855 21 12.7701V6.57646C21 5.42134 20.5126 5.05831 19.5921 4.66227C18.3141 4.12321 14.1877 2.61606 12.9097 2.16502C12.6173 2.06601 12.3032 2 12 2C11.6968 2 11.3827 2.08801 11.1011 2.16502C9.8231 2.53905 5.68592 4.13421 4.40794 4.66227C3.49819 5.0473 3 5.42134 3 6.57646V12.7701C3 16.7855 5.12274 18.2596 11.2744 21.78C11.556 21.934 11.8267 22 12 22ZM12 19.9978C11.8267 19.9978 11.6534 19.9318 11.3285 19.7338C6.32491 16.6535 4.72202 15.7514 4.72202 12.363V6.90649C4.72202 6.53245 4.787 6.38944 5.09025 6.26843C6.73646 5.60836 9.93141 4.51925 11.5668 3.85919C11.7401 3.79318 11.8809 3.76018 12 3.76018C12.1191 3.76018 12.2599 3.79318 12.4332 3.85919C14.0686 4.51925 17.2419 5.68537 18.9206 6.26843C19.213 6.37844 19.278 6.53245 19.278 6.90649V12.363C19.278 15.7514 17.6751 16.6425 12.6715 19.7338C12.3574 19.9318 12.1733 19.9978 12 19.9978ZM14.6968 15.7294C15.4549 15.7294 15.8123 15.3443 15.8123 14.5193V11.3619C15.8123 10.6359 15.5415 10.2618 14.9567 10.1738V9.9758C14.9567 7.9516 13.7653 6.58746 12 6.58746C10.2347 6.58746 9.04332 7.9516 9.04332 9.9758V10.1848C8.46931 10.2728 8.19856 10.6469 8.19856 11.3619V14.5193C8.19856 15.3443 8.55596 15.7294 9.30325 15.7294H14.6968ZM10.1697 10.1628V9.85479C10.1697 8.55666 10.9061 7.69857 12 7.69857C13.0939 7.69857 13.8303 8.55666 13.8303 9.85479V10.1518L10.1697 10.1628Z" fill="#1A1A1A"/>
</svg>
