<svg width="24" height="24" viewBox="0 0 24 24" fill="none" xmlns="http://www.w3.org/2000/svg">
<path fill-rule="evenodd" clip-rule="evenodd" d="M18.4291 2C19.5839 2 20.7244 2.83184 21.1177 3.94514L21.1687 4.10603L21.9922 8.0297L22 8.14345V10.0052C22 10.9933 21.4651 11.8826 20.6388 12.3498L20.4693 12.4371L20.4694 19.625C20.4694 20.827 19.5826 21.8241 18.4352 21.9791L18.2772 21.9949L18.123 22H5.87713C4.63415 22 3.61531 21.0176 3.53579 19.7809L3.53079 19.625L3.53073 12.4371L3.51966 12.4324C2.71164 12.045 2.14641 11.2689 2.0246 10.3705L2.00621 10.1892L2 10.0052V8.14345C2 8.09266 2.00467 8.04202 2.01274 7.99693L2.83521 4.08998C3.15198 2.96645 4.25431 2.08354 5.40611 2.0056L5.57091 2H18.4291ZM17.5102 11.9376L17.4285 12.0169C16.9503 12.4453 16.3312 12.6905 15.6737 12.6905C15.0163 12.6905 14.3972 12.4453 13.919 12.0169L13.8361 11.9376L13.7547 12.0169C13.3244 12.4025 12.7799 12.6396 12.196 12.6832L12 12.6905C11.3426 12.6905 10.7234 12.4453 10.2453 12.0169L10.1629 11.9376L10.081 12.0169C9.65064 12.4025 9.10603 12.6396 8.52212 12.6832L8.32613 12.6905C7.66874 12.6905 7.04973 12.4454 6.57148 12.0169L6.48878 11.9376L6.39377 12.0288C6.09145 12.2959 5.73282 12.4911 5.34358 12.5976L5.16098 12.64L5.16189 19.625C5.16189 19.9937 5.43226 20.2985 5.7804 20.3467L5.87713 20.3533H18.123C18.4836 20.3533 18.7841 20.0792 18.8316 19.7238L18.8381 19.625L18.838 12.64L18.6564 12.5976C18.2672 12.4911 17.9086 12.2959 17.6062 12.0288L17.5102 11.9376ZM9.34732 8.96585H7.30439L7.30482 10.0052C7.30482 10.5402 7.70479 10.9813 8.21518 11.0378L8.32613 11.0439C8.85093 11.0439 9.28591 10.6384 9.34157 10.1183L9.34759 10.0052L9.34732 8.96585ZM13.0205 8.96585H10.9785L10.9787 10.0052C10.9787 10.5402 11.3787 10.9813 11.889 11.0378L12 11.0439C12.5247 11.0439 12.9596 10.6384 13.0153 10.1183L13.0213 10.0052L13.0205 8.96585ZM16.6946 8.96585H14.6517L14.6524 10.0052C14.6524 10.5402 15.0524 10.9813 15.5628 11.0378L15.6737 11.0439C16.1985 11.0439 16.6334 10.6384 16.689 10.1183L16.695 10.0052L16.6946 8.96585ZM5.67317 8.96585H3.63024L3.6311 10.0052C3.6311 10.5402 4.03107 10.9813 4.54146 11.0378L4.65241 11.0439C5.17718 11.0439 5.61205 10.6384 5.66771 10.1183L5.67372 10.0052L5.67317 8.96585ZM20.3688 8.96585H18.3259L18.3263 10.0053C18.3263 10.5403 18.7262 10.9813 19.2366 11.0378L19.3476 11.0439C19.8723 11.0439 20.3072 10.6384 20.3629 10.1184L20.3689 10.0053L20.3688 8.96585ZM18.4291 3.64666H5.57091C5.13147 3.64666 4.62108 4.01112 4.44551 4.41826L4.40883 4.52075L3.86829 7.32H20.1307L19.5959 4.54072C19.4746 4.11031 18.9886 3.7127 18.5402 3.65408L18.4291 3.64666Z" fill="#1A1A1A"/>
</svg>
