<svg width="24" height="24" viewBox="0 0 24 24" fill="none" xmlns="http://www.w3.org/2000/svg">
<path fill-rule="evenodd" clip-rule="evenodd" d="M21.8721 11.5146L18.8204 6.82315C18.676 6.60118 18.4304 6.46748 18.167 6.46748H14.3707V4.7874C14.3707 4.35252 14.0209 4 13.5894 4H2.78125C2.34977 4 2 4.35252 2 4.7874V17.6378C2 18.0727 2.34977 18.4252 2.78125 18.4252H5.25938C5.58188 19.3417 6.45027 20 7.46875 20C8.48723 20 9.35559 19.3417 9.67812 18.4252H15.1948C15.5173 19.3417 16.3857 20 17.4042 20C18.4227 20 19.291 19.3417 19.6136 18.4252H21.2188C21.6502 18.4252 22 18.0727 22 17.6378V11.9463C22 11.793 21.9555 11.6429 21.8721 11.5146ZM7.46875 18.4252C7.03797 18.4252 6.6875 18.072 6.6875 17.6378C6.6875 17.2036 7.03797 16.8504 7.46875 16.8504C7.89953 16.8504 8.25 17.2036 8.25 17.6378C8.25 18.072 7.89953 18.4252 7.46875 18.4252ZM12.8082 16.8504H9.67809C9.35559 15.9339 8.48719 15.2756 7.46871 15.2756C6.45023 15.2756 5.58188 15.9339 5.25934 16.8504H3.5625V5.5748H12.8082V16.8504ZM17.4042 18.4252C16.9734 18.4252 16.6229 18.072 16.6229 17.6378C16.6229 17.2036 16.9734 16.8504 17.4042 16.8504C17.835 16.8504 18.1854 17.2036 18.1854 17.6378C18.1854 18.072 17.835 18.4252 17.4042 18.4252ZM20.4375 16.8504H19.6135C19.291 15.9339 18.4226 15.2756 17.4041 15.2756C16.3857 15.2756 15.5173 15.9339 15.1948 16.8504H14.3706V8.04228H17.745L20.4375 12.1815V16.8504Z" fill="#1A1A1A"/>
</svg>
