<svg width="24" height="24" viewBox="0 0 24 24" fill="none" xmlns="http://www.w3.org/2000/svg">
<path fill-rule="evenodd" clip-rule="evenodd" d="M15.3557 21.0252L21.022 15.3669C22.3379 14.0598 22.3111 12.7347 21.031 11.4544L12.2764 2.71624C11.605 2.04477 11.229 2 10.2891 2H6.87859C5.92973 2 5.64328 2.23278 4.96296 2.90426L2.90411 4.96346C2.22379 5.64389 2 5.93934 2 6.88837V10.2905C2 11.2306 2.04476 11.6156 2.71612 12.2871L11.4439 21.0342C12.724 22.3145 14.0398 22.3324 15.3557 21.0252ZM12.4106 19.9509L3.7366 11.2664C3.54862 11.0873 3.4412 10.8993 3.4412 10.6039V6.82569C3.4412 6.54815 3.53967 6.36014 3.7366 6.17212L6.17142 3.73689C6.3594 3.54888 6.54738 3.44144 6.82488 3.44144H10.5935C10.8978 3.44144 11.0858 3.55783 11.2648 3.73689L19.9568 12.4124C20.5924 13.0481 20.6013 13.7374 19.9478 14.391L14.3889 19.9419C13.7355 20.6044 13.0552 20.5955 12.4106 19.9509ZM7.92592 9.16244C8.63309 9.16244 9.15228 8.6163 9.15228 7.93587C9.15228 7.24649 8.63309 6.7093 7.92592 6.7093C7.2277 6.7093 6.69956 7.24649 6.69956 7.93587C6.69956 8.6163 7.2277 9.16244 7.92592 9.16244Z" fill="#1A1A1A"/>
</svg>
