<svg width="24" height="24" viewBox="0 0 24 24" fill="none" xmlns="http://www.w3.org/2000/svg">
<path fill-rule="evenodd" clip-rule="evenodd" d="M12 22C17.4706 22 22 17.4706 22 12C22 6.53922 17.4608 2 11.9902 2C6.52941 2 2 6.53922 2 12C2 17.4706 6.53922 22 12 22ZM12 20.3333C7.37255 20.3333 3.67647 16.6275 3.67647 12C3.67647 7.38235 7.36275 3.66667 11.9902 3.66667C16.6176 3.66667 20.3235 7.38235 20.3333 12C20.3431 16.6275 16.6275 20.3333 12 20.3333ZM11.9902 13.0588C12.3725 13.0588 12.6765 12.7647 12.6765 12.3725V5.76471C12.6765 5.38235 12.3725 5.08824 11.9902 5.08824C11.6078 5.08824 11.3137 5.38235 11.3137 5.76471V11.6961H6.87255C6.48039 11.6961 6.18627 11.9902 6.18627 12.3725C6.18627 12.7647 6.48039 13.0588 6.87255 13.0588H11.9902Z" fill="#1A1A1A"/>
</svg>
