<svg width="24" height="24" viewBox="0 0 24 24" fill="none" xmlns="http://www.w3.org/2000/svg">
<path fill-rule="evenodd" clip-rule="evenodd" d="M5 15.0676C5 15.5926 5.41037 16 5.93123 16C6.19166 16 6.42841 15.8981 6.60992 15.7179L12.0079 10.2331L17.3901 15.7179C17.5716 15.8981 17.8162 16 18.0688 16C18.5896 16 19 15.5926 19 15.0676C19 14.8168 18.9053 14.5975 18.7317 14.4251L12.7339 8.32909C12.5287 8.1097 12.2762 8 12 8C11.7238 8 11.487 8.1097 11.274 8.32125L5.26832 14.4172C5.0947 14.5975 5 14.8168 5 15.0676Z" fill="#1A1A1A"/>
</svg>
