<svg width="31" height="28" viewBox="0 0 31 28" fill="none" xmlns="http://www.w3.org/2000/svg">
<path fill-rule="evenodd" clip-rule="evenodd" d="M12.0057 16.0108C14.7304 16.0108 16.9513 13.7214 16.9513 10.9352C16.9513 8.17063 14.7418 6 12.0057 6C9.2925 6 7.0601 8.21382 7.0601 10.9568C7.07155 13.7322 9.28105 16.0108 12.0057 16.0108ZM12.0057 14.3801C10.3343 14.3801 8.90326 12.8683 8.90326 10.9568C8.90326 9.07775 10.3114 7.63067 12.0057 7.63067C13.7115 7.63067 15.1082 9.05616 15.1082 10.9352C15.1082 12.8467 13.6886 14.3801 12.0057 14.3801ZM19.1952 26C21.0956 26 22 25.46 22 24.2721C22 21.4428 18.2106 17.3499 12.0057 17.3499C5.78935 17.3499 2 21.4428 2 24.2721C2 25.46 2.90441 26 4.80481 26H19.1952ZM19.7447 24.3693H4.26674C3.96909 24.3693 3.84316 24.2937 3.84316 24.067C3.84316 22.2959 6.751 18.9806 12.0057 18.9806C17.249 18.9806 20.1568 22.2959 20.1568 24.067C20.1568 24.2937 20.0424 24.3693 19.7447 24.3693Z" fill="#1A1A1A"/>
<path fill-rule="evenodd" clip-rule="evenodd" d="M23.7877 0.00705721C22.7581 0.0769607 21.9074 0.66086 21.4144 1.52131L21.3062 1.7255L21.1629 1.80012C19.5174 2.70547 18.7794 4.53592 18.7313 7.15278C18.684 7.80571 18.5719 8.27898 18.489 8.36509L18.2297 8.62502C17.3699 9.48912 17 10.0222 17 10.8867L17.0076 11.0656C17.0982 12.1181 17.9882 12.7959 19.1002 12.7959L21.5243 12.7948L21.6151 12.9107C22.1811 13.5832 23.0415 14 23.9969 14L24.2162 13.9927C25.086 13.9344 25.8608 13.532 26.384 12.9113L26.4733 12.7948L28.8996 12.7959L29.0914 12.7886C30.2037 12.6893 31 11.9416 31 10.8867C31 10.0889 30.6919 9.58556 29.962 8.82373L29.5007 8.35445C29.4281 8.27898 29.316 7.80571 29.266 7.09263L29.2567 6.77607C29.1573 4.37879 28.414 2.66703 26.8371 1.80004L26.688 1.72317L26.6658 1.67432C26.1554 0.669133 25.1858 0 23.9969 0L23.7877 0.00705721Z" fill="white"/>
<path fill-rule="evenodd" clip-rule="evenodd" d="M23.9968 1C24.938 1 25.593 1.65642 25.8347 2.47694C27.5262 3.08287 28.1749 4.75548 28.2194 7.17918C28.2703 7.90503 28.3847 8.8013 28.8045 9.23681L29.0829 9.51847C29.5496 9.98966 30 10.4718 30 10.9978C30 11.4144 29.6954 11.7089 29.1842 11.7551L29.0397 11.7615L25.8519 11.7612C25.5973 12.455 24.8989 13 23.9968 13C23.1 13 22.4025 12.455 22.1481 11.7612L18.9603 11.7615C18.3561 11.7615 18 11.4522 18 10.9978C18 10.5244 18.3613 10.0865 18.7753 9.66019L19.1955 9.23681C19.6153 8.8013 19.7297 7.90503 19.7806 7.17918C19.8251 4.75548 20.4738 3.08287 22.1653 2.47694C22.4006 1.65642 23.062 1 23.9968 1Z" fill="#1A1A1A"/>
</svg>
