<svg width="24" height="24" viewBox="0 0 24 24" fill="none" xmlns="http://www.w3.org/2000/svg">
<path fill-rule="evenodd" clip-rule="evenodd" d="M14.378 1L17.2261 4.61466L18.1749 4.36123L19.2123 8.06608C20.5437 8.24784 21.5845 9.32766 21.6689 10.6568L21.6744 10.8315V12.8766H21.9C22.467 12.8766 22.9338 13.3056 22.9935 13.8567L23 13.9766V17.0619C23 17.6289 22.571 18.0957 22.0199 18.1554L21.9 18.1619H21.6745V20.207C21.6745 21.69 20.4849 22.9068 18.9887 22.9949L18.8148 23H3.85967C2.34123 23 1.09543 21.8381 1.00523 20.3769L1 20.207V10.8316C1 9.34859 2.18956 8.13179 3.68573 8.04369L3.85967 8.03858H4.40824L5.34659 7.7879L14.378 1ZM18.8147 9.4547H3.85958C3.12793 9.4547 2.52477 10.0018 2.45634 10.6991L2.44988 10.8316V20.207C2.44988 20.9216 3.01008 21.5107 3.72402 21.5775L3.85958 21.5838H18.8146C19.5463 21.5838 20.1495 21.0367 20.2179 20.3394L20.2244 20.207V18.1619H15.7195C15.1525 18.1619 14.6857 17.7329 14.626 17.1817L14.6195 17.0619V13.9766C14.6195 13.4096 15.0485 12.9428 15.5997 12.8831L15.7195 12.8766H20.2244V10.8316C20.2244 10.117 19.6642 9.52785 18.9503 9.46102L18.8147 9.4547ZM21.5499 14.2928H16.0695V16.7457H21.5499V14.2928ZM17.1587 6.10091L9.90479 8.03854H17.7013L17.1587 6.10091ZM14.1132 2.98602L9.03516 6.80263L15.7145 5.01839L14.1132 2.98602Z" fill="#1A1A1A"/>
</svg>
