<svg width="24" height="24" viewBox="0 0 24 24" fill="none" xmlns="http://www.w3.org/2000/svg">
<path fill-rule="evenodd" clip-rule="evenodd" d="M10.5551 18C11.0601 18 11.495 17.7759 11.8036 17.3651L18.6493 7.89212C18.8457 7.63071 19 7.33195 19 7.04564C19 6.41079 18.3828 6 17.7094 6C17.2745 6 16.8958 6.21162 16.6012 6.63485L10.499 15.2739L7.34269 11.7386C7.02004 11.3651 6.66934 11.2158 6.2485 11.2158C5.56112 11.2158 5 11.7012 5 12.3361C5 12.6349 5.12625 12.9212 5.36473 13.1826L9.23647 17.3776C9.62926 17.8008 10.0361 18 10.5551 18Z" fill="#1A1A1A"/>
</svg>
