<svg width="24" height="24" viewBox="0 0 24 24" fill="none" xmlns="http://www.w3.org/2000/svg">
<path d="M10.6838 7.30859C11.0487 6.96745 11.4874 6.79688 12 6.79688C12.5126 6.79688 12.9513 6.96745 13.3162 7.30859C13.6812 7.64974 13.8636 8.0625 13.8636 8.54688C13.8636 9.02604 13.6812 9.4362 13.3162 9.77734C12.9513 10.1185 12.5126 10.2891 12 10.2891C11.4874 10.2891 11.0487 10.1185 10.6838 9.77734C10.3188 9.4362 10.1364 9.02604 10.1364 8.54688C10.1364 8.0625 10.3188 7.64974 10.6838 7.30859Z" fill="#EE8208"/>
<path fill-rule="evenodd" clip-rule="evenodd" d="M24 12C24 18.6274 18.6274 24 12 24C5.37258 24 0 18.6274 0 12C0 5.37258 5.37258 0 12 0C18.6274 0 24 5.37258 24 12ZM9.3174 11.0469C10.0584 11.7396 10.9526 12.0859 12 12.0859C13.0474 12.0859 13.9416 11.7396 14.6826 11.0469C15.4236 10.3542 15.7941 9.52084 15.7941 8.54688C15.7941 7.5677 15.4236 6.73177 14.6826 6.03906C13.9416 5.34635 13.0474 5 12 5C10.9526 5 10.0584 5.34635 9.3174 6.03906C8.57641 6.73177 8.20592 7.5677 8.20592 8.54688C8.20592 9.52084 8.57641 10.3542 9.3174 11.0469ZM16.4961 12.9023C16.4849 12.7852 16.4431 12.6562 16.3707 12.5156C16.315 12.4115 16.237 12.3203 16.1367 12.2422C16.0364 12.1641 15.9194 12.1068 15.7857 12.0703C15.652 12.0339 15.496 12.0391 15.3177 12.0859C15.1394 12.1328 14.9584 12.224 14.7745 12.3594L14.457 12.5547C14.2508 12.6849 13.9165 12.8164 13.4541 12.9492C12.9917 13.082 12.507 13.1484 12 13.1484C11.6824 13.1484 11.3677 13.1198 11.0557 13.0625C10.7437 13.0052 10.4874 12.9427 10.2868 12.875C10.0862 12.8073 9.89404 12.7279 9.71018 12.6367C9.52633 12.5456 9.40654 12.4818 9.35083 12.4453C9.29512 12.4089 9.25333 12.3802 9.22548 12.3594C9.04162 12.224 8.86055 12.1328 8.68227 12.0859C8.50399 12.0391 8.34799 12.0339 8.21428 12.0703C8.08057 12.1068 7.96357 12.1641 7.86328 12.2422C7.763 12.3203 7.685 12.4115 7.62929 12.5156C7.55686 12.6562 7.51508 12.7852 7.50393 12.9023C7.49279 13.0195 7.50533 13.125 7.54154 13.2188C7.57775 13.3125 7.65157 13.4128 7.763 13.5195C7.87443 13.6263 7.99282 13.7227 8.11817 13.8086C8.24353 13.8945 8.41484 14.0026 8.63213 14.1328C9.26726 14.513 10.1503 14.7578 11.2813 14.8672L8.44827 17.5156C8.27556 17.6771 8.18921 17.8698 8.18921 18.0938C8.18921 18.3177 8.27556 18.5078 8.44827 18.6641L8.54856 18.7656C8.7157 18.9219 8.91905 19 9.15862 19C9.39819 19 9.60433 18.9219 9.77704 18.7656L12.0084 16.6719C13.1226 17.7135 13.8664 18.4115 14.2397 18.7656C14.4124 18.9219 14.6185 19 14.8581 19C15.0977 19 15.3038 18.9219 15.4765 18.7656L15.5768 18.6641C15.7439 18.5078 15.8275 18.3177 15.8275 18.0938C15.8275 17.8698 15.7439 17.6771 15.5768 17.5156L13.3455 15.4297L12.7354 14.8672C13.8497 14.7578 14.7272 14.513 15.3679 14.1328C15.5852 14.0026 15.7565 13.8945 15.8818 13.8086C16.0072 13.7227 16.1256 13.6263 16.237 13.5195C16.3484 13.4128 16.4222 13.3125 16.4585 13.2188C16.4947 13.125 16.5072 13.0195 16.4961 12.9023Z" fill="#EE8208"/>
</svg>
