<svg width="24" height="24" viewBox="0 0 24 24" fill="none" xmlns="http://www.w3.org/2000/svg">
<path d="M18.875 2.70313H5.125C3.40182 2.70313 2 4.10495 2 5.82812V16.7656C2 18.4888 3.40182 19.8906 5.125 19.8906H12.5469C12.8449 19.8906 13.1169 19.7211 13.2483 19.4535C13.3795 19.186 13.3472 18.8669 13.1647 18.6313L11.1212 15.9903L16.785 8.78619L20.4375 13.1435V14.4609C20.4375 14.8925 20.7872 15.2422 21.2188 15.2422C21.6503 15.2422 22 14.8925 22 14.4609V5.82812C22 4.10495 20.5982 2.70312 18.875 2.70312V2.70313ZM17.3644 7.04501C17.2132 6.86465 16.989 6.76166 16.7534 6.76578C16.518 6.76944 16.2969 6.879 16.1515 7.06409L10.1352 14.7162L8.08658 12.0688C7.93857 11.8775 7.71045 11.7656 7.46875 11.7656C7.46844 11.7656 7.46799 11.7656 7.46768 11.7656C7.22552 11.7659 6.9971 11.8785 6.84955 12.0705L5.13019 14.3056C4.86713 14.6477 4.93106 15.1381 5.27301 15.4012C5.61511 15.6644 6.10553 15.6003 6.36859 15.2584L7.47058 13.8259L10.9545 18.3281H5.125C4.26349 18.3281 3.5625 17.6271 3.5625 16.7656V5.82812C3.5625 4.96661 4.26349 4.26562 5.125 4.26562H18.875C19.7365 4.26562 20.4375 4.96661 20.4375 5.82812V10.7112L17.3644 7.04501ZM7.46875 5.51562C6.17633 5.51562 5.125 6.56696 5.125 7.85938C5.125 9.15179 6.17633 10.2031 7.46875 10.2031C8.76117 10.2031 9.8125 9.15179 9.8125 7.85938C9.8125 6.56696 8.76117 5.51562 7.46875 5.51562ZM7.46875 8.64062C7.03799 8.64062 6.6875 8.29013 6.6875 7.85938C6.6875 7.42862 7.03799 7.07812 7.46875 7.07812C7.89951 7.07812 8.25 7.42862 8.25 7.85938C8.25 8.29013 7.89951 8.64062 7.46875 8.64062ZM22 17.5859C22 18.0175 21.6503 18.3672 21.2188 18.3672H19.0703V20.5156C19.0703 20.9471 18.7206 21.2969 18.2891 21.2969C17.8575 21.2969 17.5078 20.9471 17.5078 20.5156V18.3672H15.3594C14.9279 18.3672 14.5781 18.0175 14.5781 17.5859C14.5781 17.1544 14.9279 16.8047 15.3594 16.8047H17.5078V14.6562C17.5078 14.2247 17.8575 13.875 18.2891 13.875C18.7206 13.875 19.0703 14.2247 19.0703 14.6562V16.8047H21.2188C21.6503 16.8047 22 17.1544 22 17.5859Z" fill="#1A1A1A"/>
</svg>
