<svg width="24" height="24" viewBox="0 0 24 24" fill="none" xmlns="http://www.w3.org/2000/svg">
<path fill-rule="evenodd" clip-rule="evenodd" d="M21.4167 3.21476L21.4452 3.37803L22.9402 12.8093C23.2212 14.5816 22.5112 15.6298 20.8183 15.9528L20.6567 15.9809L20.25 16.0453V20.2214C20.25 22.0177 19.3845 22.943 17.6615 22.9974L17.4975 23H3.7525C1.96744 23 1.05611 22.1291 1.00251 20.3872L1 20.2214V10.6626C1 9.26583 1.51833 8.39055 2.56252 8.04447L2.69157 8.00514L2.43527 6.38625C2.15431 4.61394 2.85481 3.55863 4.5551 3.23399L4.71743 3.2057L18.291 1.05775C19.9906 0.788804 21.0247 1.45984 21.384 3.05728L21.4167 3.21476ZM18.8387 13.5402H2.41134V20.1405C2.41134 21.0332 2.85064 21.508 3.65298 21.5493L3.77006 21.5523H17.48C18.3 21.5523 18.7925 21.118 18.8356 20.2652L18.8387 20.1405V13.5402ZM6.9345 15.5004C7.41937 15.5004 7.75014 15.8166 7.7896 16.271L7.79356 16.3637V18.0273C7.79356 18.5078 7.49309 18.846 7.02938 18.8865L6.9345 18.8905H4.78685C4.30198 18.8905 3.9712 18.5823 3.93175 18.1214L3.92778 18.0273V16.3637C3.92778 15.8916 4.22826 15.546 4.69197 15.5046L4.78685 15.5004H6.9345ZM20.5015 6.4377L11.4163 7.87499H17.4975C19.2741 7.87499 20.1934 8.75437 20.2475 10.4967L20.25 10.6626V14.5802L20.4129 14.5552C21.2227 14.4271 21.6412 13.9217 21.5503 13.0735L21.5339 12.95L20.5015 6.4377ZM17.48 9.32278H3.77006C2.93332 9.32278 2.45599 9.76522 2.41432 10.6188L2.41134 10.7436V11.4989H18.8387V10.7436C18.8387 9.85087 18.3834 9.36785 17.5949 9.32578L17.48 9.32278ZM18.6141 2.47391L18.5002 2.4889L4.96124 4.63137C4.13493 4.76213 3.73276 5.27326 3.82512 6.12198L3.84169 6.24552L3.95983 6.99079L20.1823 4.42367L20.0642 3.67839C19.9315 2.84166 19.4509 2.43392 18.7299 2.46531L18.6141 2.47391Z" fill="#1A1A1A"/>
</svg>
